<?xml version="1.0" standalone="no"?>
<!DOCTYPE svg PUBLIC "-//W3C//DTD SVG 20010904//EN"
 "http://www.w3.org/TR/2001/REC-SVG-20010904/DTD/svg10.dtd">
<svg version="1.0" xmlns="http://www.w3.org/2000/svg"
 width="300.000000pt" height="37.000000pt" viewBox="0 0 300.000000 37.000000"
 preserveAspectRatio="xMidYMid meet">
<metadata>
Created by potrace 1.10, written by Peter Selinger 2001-2011
</metadata>
<g transform="translate(0.000000,37.000000) scale(0.100000,-0.100000)"
fill="#f5f0f0" stroke="none">
<path d="M175 304 c17 -9 42 -30 58 -46 15 -16 27 -25 27 -21 0 16 -64 71 -90
77 -22 6 -21 5 5 -10z"/>
<path d="M304 293 c-3 -16 -10 -39 -15 -52 -5 -13 -8 -25 -6 -28 5 -4 23 41
31 80 4 15 4 27 1 27 -2 0 -7 -12 -11 -27z"/>
<path d="M370 315 c0 -4 9 -22 20 -40 17 -27 26 -56 29 -88 1 -5 6 -5 11 -2 6
3 10 21 10 40 0 18 6 36 13 38 7 3 6 6 -5 6 -9 1 -19 11 -21 24 -2 12 -2 0 0
-28 l4 -49 -27 49 c-28 54 -34 63 -34 50z"/>
<path d="M579 288 c-1 -18 -1 -44 0 -58 l2 -25 -21 24 c-16 19 -18 26 -8 32
10 7 10 9 -1 9 -8 0 -25 10 -38 22 -24 22 -33 19 -10 -4 7 -7 30 -37 50 -67
l37 -53 0 76 c0 74 -9 109 -11 44z"/>
<path d="M700 296 c0 -14 4 -27 8 -30 5 -3 6 8 4 25 -5 35 -12 38 -12 5z"/>
<path d="M813 285 c-15 -19 -33 -35 -38 -35 -25 0 -11 -47 31 -102 45 -57 64
-66 64 -27 0 10 6 19 13 19 9 0 8 3 -2 9 -10 6 -12 21 -8 52 3 24 2 62 -3 84
-9 39 -9 38 -5 -12 3 -42 1 -55 -13 -62 -10 -6 -12 -11 -4 -11 17 0 15 -48 -3
-66 -8 -9 -15 -11 -15 -5 0 6 0 13 0 16 0 3 -14 18 -31 34 l-31 30 23 33 c12
18 31 43 42 56 11 12 18 22 14 22 -3 0 -19 -16 -34 -35z"/>
<path d="M985 306 c17 -8 43 -28 59 -45 23 -24 27 -34 18 -43 -7 -7 -12 -17
-12 -22 0 -6 5 -4 10 4 8 12 10 10 10 -8 0 -14 -4 -21 -11 -17 -6 4 -9 0 -7
-11 2 -12 -4 -20 -17 -22 -11 -3 -31 -16 -45 -30 l-25 -26 38 22 c46 27 48 27
40 4 -3 -9 -3 -14 1 -10 4 3 9 12 10 20 1 7 7 23 14 35 11 20 11 90 1 96 -2 1
-18 14 -34 28 -17 15 -41 29 -55 33 -21 5 -20 3 5 -8z"/>
<path d="M1112 278 c-6 -23 -9 -44 -7 -46 2 -2 9 15 15 38 6 23 9 44 7 46 -2
3 -9 -14 -15 -38z"/>
<path d="M1300 316 c0 -4 15 -26 34 -49 18 -23 40 -55 48 -71 10 -18 18 -25
22 -17 4 6 4 11 -1 11 -4 0 -6 30 -5 67 2 38 1 65 -3 62 -3 -4 -6 -30 -7 -58
0 -51 0 -51 -18 -28 -13 16 -15 24 -7 29 8 5 6 8 -5 8 -9 0 -26 12 -37 26 -12
15 -21 23 -21 20z"/>
<path d="M1455 288 c-6 -18 -7 -49 -4 -68 6 -31 7 -32 8 -7 0 16 5 26 11 22 6
-3 10 -1 10 4 0 6 -4 11 -10 11 -5 0 -10 5 -10 11 0 5 4 8 8 5 5 -3 6 8 4 25
-2 16 -5 29 -6 29 0 0 -6 -15 -11 -32z"/>
<path d="M1521 298 c-1 -32 8 -58 21 -58 5 0 6 5 2 12 -4 6 -11 25 -15 42 -7
30 -7 30 -8 4z"/>
<path d="M1564 296 c-9 -15 -14 -29 -10 -33 3 -3 6 -1 6 5 0 6 7 18 16 27 9 9
14 18 11 21 -3 3 -13 -6 -23 -20z"/>
<path d="M634 204 c-1 -101 -1 -104 7 -41 10 94 22 99 15 7 l-5 -75 11 62 c11
65 2 175 -12 138 -7 -19 -7 -19 -11 -1 -2 10 -4 -30 -5 -90z"/>
<path d="M740 283 c-8 -16 -16 -31 -18 -35 -2 -5 2 -8 7 -8 6 0 11 8 11 17 0
9 7 25 17 35 9 10 12 18 6 18 -5 0 -16 -12 -23 -27z"/>
<path d="M1235 282 c1 -12 -2 -25 -6 -28 -5 -3 -9 -11 -9 -17 0 -7 4 -6 10 3
8 13 10 13 10 -2 0 -9 -4 -19 -10 -23 -5 -3 -7 -12 -4 -20 10 -24 24 -6 24 30
0 24 5 35 18 38 13 4 12 5 -5 6 -12 0 -24 9 -26 19 -2 9 -3 7 -2 -6z"/>
<path d="M1622 288 c-7 -7 -12 -18 -12 -25 0 -7 -6 -13 -14 -13 -22 0 -24 -32
-4 -60 23 -31 56 -71 44 -53 -5 7 -5 13 0 13 4 0 -7 15 -24 33 -29 30 -31 35
-17 47 23 19 58 70 48 70 -5 0 -14 -5 -21 -12z"/>
<path d="M119 273 c-1 -5 0 -18 0 -30 1 -11 -2 -23 -6 -26 -5 -3 -7 -24 -5
-47 4 -41 5 -42 35 -36 36 7 33 5 42 36 7 24 7 23 -17 -4 -14 -16 -29 -26 -35
-23 -14 9 -22 67 -10 67 5 0 7 14 5 30 -4 25 -2 30 11 24 9 -3 24 -9 34 -11
24 -7 25 -40 0 -35 -8 2 -12 -1 -8 -7 13 -22 49 -2 39 22 -9 25 -82 59 -85 40z"/>
<path d="M925 271 c-3 -5 0 -13 6 -17 8 -4 9 -3 5 4 -9 15 -7 15 33 1 17 -6
31 -15 31 -20 0 -21 -2 -24 -18 -21 -15 2 -16 1 -1 -10 9 -7 14 -20 12 -28 -4
-13 -3 -13 6 0 5 8 8 17 5 21 -2 4 1 9 7 11 17 6 -2 38 -32 53 -33 17 -46 19
-54 6z"/>
<path d="M346 235 c-3 -9 1 -26 9 -38 15 -21 15 -21 11 11 -4 39 -11 49 -20
27z"/>
<path d="M496 228 c4 -17 2 -28 -5 -28 -7 0 -10 -20 -9 -52 1 -46 2 -48 5 -13
6 67 13 74 33 35 10 -19 28 -44 41 -55 18 -16 16 -11 -8 26 -18 25 -38 61 -47
80 -13 29 -14 30 -10 7z"/>
<path d="M1156 235 c-3 -9 1 -26 9 -38 15 -21 15 -21 11 11 -4 39 -11 49 -20
27z"/>
<path d="M1295 188 c-4 -36 -5 -72 -2 -80 3 -7 6 7 6 32 2 60 13 77 29 42 7
-15 24 -40 39 -57 19 -22 21 -23 9 -5 -9 14 -29 50 -45 80 l-29 55 -7 -67z"/>
<path d="M925 223 c-7 -17 -7 -84 0 -91 7 -8 65 10 65 19 0 6 -7 6 -18 0 -31
-16 -46 2 -38 48 7 43 3 53 -9 24z"/>
<path d="M239 213 c-1 -4 -1 -12 0 -17 5 -26 -11 -56 -29 -56 -11 0 -20 -5
-20 -11 0 -7 -8 -18 -17 -26 -10 -8 -1 -5 20 6 46 25 48 26 40 4 -3 -10 -3
-15 1 -11 4 3 8 12 10 20 1 7 5 18 9 25 4 6 3 23 -3 37 -5 15 -6 26 0 26 4 0
11 -7 13 -15 4 -12 5 -11 3 1 -1 18 -25 32 -27 17z"/>
<path d="M711 166 c-7 -8 -11 -27 -8 -43 4 -27 4 -27 6 5 0 17 5 32 11 32 9 0
36 -40 33 -51 -1 -3 4 -6 12 -6 10 0 8 10 -8 39 -24 42 -29 44 -46 24z"/>
<path d="M1460 138 c0 -49 5 -47 13 5 3 20 2 37 -4 37 -5 0 -9 -19 -9 -42z"/>
<path d="M1524 166 c-3 -8 -4 -29 -1 -48 l4 -33 1 38 c2 43 10 46 35 12 13
-18 14 -25 5 -26 -7 0 -4 -4 7 -8 30 -12 31 -4 5 24 -13 14 -20 25 -16 25 4 0
1 7 -8 15 -18 19 -25 19 -32 1z"/>
<path d="M287 134 c7 -3 9 -13 6 -22 -4 -15 -3 -15 6 -2 15 22 14 30 -6 29
-10 0 -13 -3 -6 -5z"/>
<path d="M330 130 c0 -5 10 -10 23 -10 13 0 28 -5 35 -12 7 -7 12 -9 12 -6 0
4 -7 14 -16 22 -17 18 -54 22 -54 6z"/>
<path d="M1103 120 c-1 -11 2 -18 8 -15 11 7 12 35 1 35 -4 0 -8 -9 -9 -20z"/>
<path d="M1145 130 c-4 -6 7 -10 27 -10 25 0 29 3 18 10 -19 13 -37 13 -45 0z"/>
</g>
</svg>
