<svg version="1.1" id="Layer_1" xmlns="http://www.w3.org/2000/svg" xmlns:xlink="http://www.w3.org/1999/xlink" x="0px" y="0px"
	 width="100%" viewBox="0 0 728 90" enable-background="new 0 0 728 90" xml:space="preserve">
<path fill="#FFFFFF" opacity="1.000000" stroke="none" 
	d="
M694.000000,91.000000 
	C464.166656,91.000000 234.833328,90.989319 5.500042,91.093445 
	C1.750800,91.095146 0.874523,90.253166 0.900216,86.499313 
	C1.086149,59.333923 1.079939,32.166138 0.899677,5.000666 
	C0.876929,1.572588 1.575870,0.899314 5.000135,0.904126 
	C91.666626,1.025913 178.333328,1.000000 265.000000,1.000000 
	C418.166656,1.000000 571.333313,1.015967 724.499939,0.906033 
	C728.249390,0.903342 729.124939,1.746901 729.099731,5.500670 
	C728.914856,32.999428 728.961426,60.500145 729.065063,87.999756 
	C729.074524,90.500404 728.504822,91.106895 725.998962,91.068268 
	C715.501465,90.906441 705.000000,91.000000 694.000000,91.000000 
z"/>
<path fill="#F5F2F2" opacity="1.000000" stroke="none" 
	d="
M192.006134,60.987740 
	C188.470490,67.991066 177.786072,71.861610 171.181839,68.807053 
	C170.026062,68.272507 169.336349,67.270126 169.366013,66.061546 
	C169.402908,64.559082 170.584000,63.418911 171.842209,63.303234 
	C175.296783,62.985622 175.021988,60.679592 175.012878,58.298885 
	C174.979797,49.648853 174.972336,40.998470 175.018036,32.348557 
	C175.030060,30.074917 175.128922,28.082140 171.980255,27.740461 
	C170.562485,27.586613 169.033417,26.349567 169.443604,24.599459 
	C169.792023,23.112869 171.144760,22.087830 172.804703,22.067654 
	C176.794189,22.019156 180.799133,21.891123 184.769363,22.182800 
	C186.744965,22.327942 188.658234,23.502928 189.600754,25.388105 
	C192.346146,30.879213 195.552856,36.153805 197.507263,42.025303 
	C198.695618,45.595402 197.804840,48.931297 196.364182,52.155796 
	C195.076691,55.037468 193.568344,57.820465 192.006134,60.987740 
z"/>
<path fill="#F5F2F2" opacity="1.000000" stroke="none" 
	d="
M342.498779,66.869225 
	C342.148010,65.130516 343.017273,63.898796 344.011322,63.759140 
	C348.540558,63.122814 348.037079,59.910648 348.017181,56.761902 
	C347.965668,48.613079 347.964050,40.463463 348.022247,32.314732 
	C348.038696,30.008993 348.054321,28.080660 344.950897,27.727562 
	C343.537079,27.566706 342.011414,26.322531 342.449066,24.570736 
	C342.818237,23.093235 344.170868,22.079073 345.834656,22.062918 
	C349.823059,22.024183 353.830658,21.868135 357.794159,22.197147 
	C359.947937,22.375933 361.847778,23.743795 362.888672,25.828434 
	C365.263733,30.585178 367.669403,35.330170 369.889954,40.159336 
	C371.489197,43.637344 371.514801,47.297665 369.905914,50.785118 
	C367.679382,55.611305 365.272217,60.354530 362.910278,65.117340 
	C362.621155,65.700302 362.190491,66.241089 361.729370,66.706238 
	C358.710846,69.751175 346.397247,70.072029 342.498779,66.869225 
z"/>
<path fill="#F5F2F2" opacity="1.000000" stroke="none" 
	d="
M226.071991,49.000000 
	C228.040955,48.999733 229.544281,49.074387 231.036621,48.978363 
	C232.563904,48.880093 234.744690,49.611198 234.849045,47.034157 
	C234.944183,44.684475 233.420746,43.266773 231.185425,43.099689 
	C228.203979,42.876835 225.189423,43.119144 222.202606,42.938274 
	C220.181458,42.815887 217.977844,42.368473 218.137604,39.627899 
	C218.281006,37.168224 220.244873,36.990448 222.183701,37.000454 
	C224.348145,37.011627 226.512680,36.999603 228.677185,37.000263 
	C237.413864,37.002918 240.326050,39.496441 240.912033,48.338108 
	C241.285568,53.974514 241.100647,59.658390 240.948700,65.315140 
	C240.861465,68.562798 239.512878,70.399605 236.387222,67.569717 
	C235.442108,66.714035 234.740356,66.501183 233.848862,67.113411 
	C230.101425,69.686974 225.858856,69.002060 221.746048,68.973335 
	C216.249557,68.934959 212.398972,65.437836 212.006607,60.357841 
	C211.527679,54.157364 214.315018,50.209534 220.122406,49.173580 
	C221.902466,48.856045 223.772629,49.043694 226.071991,49.000000 
z"/>
<path fill="#F5F2F2" opacity="1.000000" stroke="none" 
	d="
M391.853790,68.787521 
	C385.744537,65.482002 383.782532,61.548740 385.148560,56.026604 
	C386.250946,51.570068 390.279327,49.060333 396.461243,49.003849 
	C398.960449,48.981014 401.462982,49.072765 403.958344,48.972061 
	C405.476624,48.910778 407.663116,49.660416 407.840973,47.106945 
	C408.005554,44.744621 406.478424,43.317451 404.253754,43.111481 
	C401.609283,42.866642 398.925171,43.087811 396.263733,42.976467 
	C393.955353,42.879890 391.095154,42.999401 391.179688,39.686058 
	C391.260071,36.534557 394.021851,37.061184 396.129272,37.009655 
	C397.961121,36.964867 399.794861,36.999531 401.627777,37.000099 
	C410.404236,37.002827 413.310638,39.468670 413.909485,48.303745 
	C414.291748,53.943348 414.095612,59.632164 413.950806,65.293602 
	C413.867981,68.532578 412.549622,70.402504 409.397888,67.580833 
	C408.455963,66.737549 407.778137,66.507187 406.858032,67.103851 
	C402.272186,70.077667 397.176758,68.765564 391.853790,68.787521 
z"/>
<path fill="#F5F2F2" opacity="1.000000" stroke="none" 
	d="
M305.001892,47.863029 
	C305.597046,50.027237 306.411621,48.927589 307.105713,48.365227 
	C310.830963,45.347019 314.498566,42.256264 318.266174,39.292358 
	C319.875946,38.025959 321.589233,35.976109 323.787384,38.365276 
	C326.287811,41.082970 323.197296,42.174458 321.925018,43.459389 
	C319.722961,45.683308 317.374573,47.917999 314.696472,49.475727 
	C311.302155,51.450043 312.501465,52.602077 314.751495,54.319878 
	C318.164764,56.925766 321.412720,59.747162 324.762177,62.438084 
	C326.622681,63.932777 327.957764,65.705017 326.260925,67.924950 
	C324.626221,70.063614 322.983704,68.414513 321.587402,67.302704 
	C317.837555,64.316887 314.240448,61.128036 310.370941,58.310635 
	C309.229156,57.479317 308.057037,55.454945 306.105988,56.707085 
	C304.614105,57.664536 305.075745,59.374004 305.001221,60.834351 
	C304.908386,62.653484 304.995209,64.504028 304.675537,66.281853 
	C304.446838,67.553749 303.787659,68.821381 302.105316,68.895485 
	C300.400909,68.970566 299.811127,67.743866 299.364746,66.479233 
	C299.095764,65.717125 299.019043,64.853836 299.017487,64.035698 
	C298.996155,52.728176 298.976349,41.420486 299.026062,30.113146 
	C299.035492,27.965443 299.069366,25.265636 301.958282,25.220692 
	C304.881317,25.175219 304.941406,27.879267 304.970337,30.026579 
	C305.048798,35.845612 304.998138,41.666382 305.001892,47.863029 
z"/>
<path fill="#F5F2F2" opacity="1.000000" stroke="none" 
	d="
M491.194519,57.769333 
	C493.371826,59.588894 495.285400,61.167500 497.177032,62.771946 
	C498.880737,64.217003 499.793213,65.989426 498.247681,67.960403 
	C496.815643,69.786606 495.321136,68.667168 493.958008,67.573082 
	C489.962250,64.365898 486.016602,61.090309 481.909271,58.032265 
	C480.881897,57.267380 479.837830,55.471478 478.062012,56.719158 
	C476.790833,57.612286 477.052948,59.066704 476.998291,60.381096 
	C476.915680,62.366943 476.982300,64.380211 476.657867,66.327240 
	C476.445465,67.601929 475.747101,68.856499 474.056396,68.895775 
	C472.354492,68.935303 471.786560,67.695564 471.349213,66.431885 
	C471.084808,65.667816 471.018127,64.804146 471.016663,63.984951 
	C470.996429,52.674000 470.973907,41.362865 471.028442,30.052147 
	C471.038788,27.905519 471.102936,25.200542 474.018799,25.220556 
	C476.920898,25.240475 476.948792,27.943640 476.972473,30.091438 
	C477.041962,36.394924 476.997253,42.699665 476.997253,49.961281 
	C481.767273,46.119953 485.906982,42.721886 490.124268,39.422966 
	C491.724609,38.171082 493.340759,36.010170 495.652954,38.231659 
	C498.348938,40.821903 495.377472,42.037342 494.068146,43.334045 
	C491.840942,45.539856 489.505981,47.760029 486.853455,49.380074 
	C483.949768,51.153530 483.780457,52.363621 486.624054,54.189686 
	C488.145905,55.167004 489.494446,56.414219 491.194519,57.769333 
z"/>
<path fill="#F5F2F2" opacity="1.000000" stroke="none" 
	d="
M265.001404,46.014790 
	C261.516327,47.662334 260.713623,50.173462 260.938477,53.497326 
	C261.195953,57.303093 261.097015,61.145691 260.926178,64.962143 
	C260.845245,66.769890 260.391357,68.870026 257.965515,68.833908 
	C255.563843,68.798141 255.097916,66.703453 255.068634,64.893005 
	C254.950333,57.579758 254.996994,50.263645 255.006714,42.948624 
	C255.009781,40.633816 254.759399,37.891655 257.634430,37.203609 
	C260.611542,36.491138 260.241211,39.962242 261.649567,41.299568 
	C263.327972,40.424534 264.922546,39.557095 266.547913,38.751804 
	C275.932770,34.102055 282.748383,37.417000 283.820587,47.652126 
	C284.440826,53.573238 283.972626,59.608932 283.981873,65.593079 
	C283.984039,67.005936 283.644867,68.322365 282.095917,68.729950 
	C280.210846,69.225983 279.492584,67.837692 278.750336,66.468277 
	C277.996796,65.078033 277.995483,63.604988 277.997955,62.105900 
	C278.004547,58.115845 278.010620,54.125736 277.997681,50.135712 
	C277.973572,42.702175 274.405304,40.669838 267.973633,44.409134 
	C267.112488,44.909782 266.227173,45.368885 265.001404,46.014790 
z"/>
<path fill="#F5F2F2" opacity="1.000000" stroke="none" 
	d="
M437.199493,39.910118 
	C439.655487,38.849854 441.705261,37.479603 443.921478,37.111622 
	C452.353363,35.711563 456.517242,39.478134 456.951019,48.885067 
	C457.195923,54.196075 457.000153,59.527565 456.995667,64.849823 
	C456.994232,66.549866 457.011169,68.447388 454.845093,68.760216 
	C452.413269,69.111427 451.514618,66.948692 451.370697,65.300186 
	C450.981812,60.845543 450.685211,56.310837 451.088379,51.874813 
	C451.815186,43.877483 450.035309,39.935547 439.409821,45.224052 
	C435.420898,47.209412 433.296600,49.722279 433.904449,54.497749 
	C434.362244,58.094273 434.083496,61.809849 433.861847,65.455963 
	C433.763519,67.073128 433.154449,68.894371 430.963745,68.858826 
	C428.794220,68.823608 428.154999,66.998390 428.127411,65.385635 
	C427.988068,57.239223 427.991974,49.088882 428.078003,40.941319 
	C428.095398,39.297104 428.608582,37.532608 430.633850,37.140488 
	C432.579681,36.763741 433.359406,38.264099 433.738373,39.703800 
	C434.550537,42.789284 435.787048,40.384182 437.199493,39.910118 
z"/>
<path fill="#FFFFFF" opacity="1.000000" stroke="none" 
	d="
M191.089111,49.803673 
	C189.350098,53.630413 187.765564,57.093445 186.191574,60.561264 
	C185.523499,62.033165 184.575027,63.124336 182.784637,62.867924 
	C180.588028,62.553329 181.024429,60.773277 181.019455,59.365875 
	C180.986618,50.065342 180.990829,40.764603 181.017838,31.464029 
	C181.021515,30.197350 180.688660,28.661932 182.464645,28.182537 
	C183.286102,27.960796 184.298935,27.996260 184.691879,28.826500 
	C187.628021,35.030159 192.479752,40.538582 191.810654,48.066086 
	C191.768738,48.537640 191.442047,48.983879 191.089111,49.803673 
z"/>
<path fill="#FFFFFF" opacity="1.000000" stroke="none" 
	d="
M354.103149,61.336525 
	C354.022430,51.284447 353.990295,41.659809 354.024567,32.035412 
	C354.029510,30.645695 353.430908,28.795198 355.395081,28.212679 
	C357.582184,27.564026 358.190155,29.431534 358.937592,30.886961 
	C359.998291,32.952442 360.915894,35.097801 362.073517,37.105911 
	C365.297028,42.697773 366.111450,48.165600 362.145111,53.856312 
	C360.850281,55.714073 360.368805,58.119896 359.348907,60.193199 
	C358.232513,62.462742 356.858032,64.419037 354.103149,61.336525 
z"/>
<path fill="#FFFFFF" opacity="1.000000" stroke="none" 
	d="
M227.878265,55.000000 
	C229.503647,55.007397 230.667023,54.992470 231.828873,55.027847 
	C233.275848,55.071907 234.439774,55.591953 234.814789,57.134815 
	C235.216415,58.787025 234.598083,59.948994 233.175613,60.918442 
	C229.126465,63.677971 224.602768,63.261143 220.174362,62.764511 
	C217.810211,62.499378 218.004517,60.207653 218.021866,58.361118 
	C218.040146,56.413868 218.911240,55.151955 220.939011,55.058296 
	C223.094162,54.958755 225.256424,55.012939 227.878265,55.000000 
z"/>
<path fill="#FFFFFF" opacity="1.000000" stroke="none" 
	d="
M406.205811,55.278542 
	C408.820618,57.634109 408.343292,59.398685 405.865479,61.067970 
	C401.935364,63.715652 397.566193,63.177589 393.297180,62.792995 
	C390.883820,62.575573 391.010101,60.340145 391.014404,58.476112 
	C391.019531,56.259361 392.065857,55.025227 394.332458,55.029179 
	C398.159149,55.035854 401.985809,55.089275 406.205811,55.278542 
z"/>
</svg>